<?xml version="1.0" encoding="UTF-8"?>
<svg id="Calque_1" xmlns="http://www.w3.org/2000/svg" version="1.1" viewBox="210 240.2 422 114" width="422" height="114">
  <!-- Generator: Adobe Illustrator 30.0.0, SVG Export Plug-In . SVG Version: 2.1.1 Build 123)  -->
  <defs>
    <style>
      .st0 {
        fill: #010101;
      }

      .st1 {
        fill: #fff;
      }
    </style>
  </defs>
  <rect class="st0" x="210" y="240.2" width="422" height="114"/>
  <g>
    <path class="st1" d="M278.3,266.4v54.6h-12.4v-54.6h12.4Z"/>
    <path class="st1" d="M288.8,294c0-4.9-.2-9.1-.3-12.6h10.7l.6,5.4h.2c1.6-2.5,5.7-6.3,12.2-6.3s14.2,5.3,14.2,17v23.5h-12.3v-21.9c0-5.1-1.8-8.6-6.2-8.6s-5.4,2.3-6.2,4.6c-.3.7-.5,1.9-.5,3.1v22.8h-12.3v-27Z"/>
    <path class="st1" d="M337.1,308.3c3.3,1.7,8.4,3.4,13.7,3.4s8.7-2.3,8.7-5.9-2.6-5.3-9.1-7.7c-9.1-3.2-15-8.2-15-16.1s7.8-16.4,20.6-16.4,10.7,1.3,13.9,2.8l-2.8,10c-2.2-1.1-6.1-2.6-11.4-2.6s-7.9,2.4-7.9,5.3,3.1,5,10.1,7.7c9.6,3.6,14.2,8.6,14.2,16.3s-7,16.9-22,16.9-12.4-1.6-15.5-3.3l2.5-10.2Z"/>
    <path class="st1" d="M393.3,270v11.3h8.8v9.1h-8.8v14.3c0,4.8,1.1,7,4.9,7s2.8-.2,3.6-.3v9.3c-1.5.6-4.5,1.1-7.9,1.1s-7.3-1.4-9.2-3.4c-2.3-2.3-3.4-6.2-3.4-11.7v-16.2h-5.3v-9.1h5.3v-8.6l12.1-2.8Z"/>
    <path class="st1" d="M448,300.7c0,14.5-10.3,21.1-20.9,21.1s-20.5-7.6-20.5-20.4,8.4-21,21.1-21,20.2,8.3,20.2,20.2ZM419.3,301.1c0,6.8,2.8,11.9,8.1,11.9s7.9-4.8,7.9-11.9-2.3-11.9-7.9-11.9-8.1,6.1-8.1,11.9Z"/>
    <path class="st1" d="M455.6,294.4c0-5.8-.2-9.6-.3-13h10.6l.4,7.3h.3c2-5.7,6.9-8.2,10.7-8.2s1.7,0,2.6.2v11.6c-.9-.2-1.9-.3-3.3-.3-4.5,0-7.6,2.4-8.4,6.2-.2.8-.2,1.8-.2,2.8v20.1h-12.3v-26.6Z"/>
    <path class="st1" d="M499.1,270.4c0,3.4-2.6,6.2-6.6,6.2s-6.5-2.8-6.4-6.2c0-3.6,2.5-6.2,6.5-6.2s6.5,2.7,6.6,6.2ZM486.3,321v-39.6h12.3v39.6h-12.3Z"/>
    <path class="st1" d="M518,305.1c.4,5.1,5.4,7.5,11.2,7.5s7.6-.6,10.9-1.6l1.6,8.3c-4,1.6-9,2.4-14.3,2.4-13.4,0-21.1-7.8-21.1-20.2s6.2-21.1,20-21.1,17.6,10,17.6,19.8-.2,4-.4,4.9h-25.5ZM532.5,296.7c0-3-1.3-8-7-8s-7.3,4.7-7.6,8h14.6Z"/>
    <path class="st1" d="M551.2,310.2c2.3,1.4,7,3,10.6,3s5.3-1.3,5.3-3.3-1.2-3-5.8-4.5c-8.2-2.8-11.3-7.2-11.3-11.9,0-7.4,6.3-13,16.1-13s8.7,1.1,11.2,2.3l-2.2,8.5c-1.8-1-5.2-2.3-8.6-2.3s-4.7,1.2-4.7,3.2,1.5,2.8,6.4,4.5c7.5,2.6,10.7,6.4,10.8,12.2,0,7.4-5.8,12.8-17.2,12.8s-9.8-1.1-12.8-2.8l2.2-8.8Z"/>
  </g>
</svg>